<?xml version="1.0" standalone="no"?>
<!DOCTYPE svg PUBLIC "-//W3C//DTD SVG 20010904//EN"
 "http://www.w3.org/TR/2001/REC-SVG-20010904/DTD/svg10.dtd">
<svg version="1.0" xmlns="http://www.w3.org/2000/svg"
 width="900.000000pt" height="900.000000pt" viewBox="0 0 900.000000 900.000000"
 preserveAspectRatio="xMidYMid meet">
<metadata>
Created by potrace 1.11, written by Peter Selinger 2001-2013
</metadata>
<g transform="translate(0.000000,900.000000) scale(0.100000,-0.100000)"
fill="#000000" stroke="none">
<path d="M4249 8746 c-2 -2 -47 -6 -99 -10 -52 -3 -108 -8 -125 -11 -16 -2
-70 -9 -120 -15 -94 -13 -311 -53 -380 -71 -22 -6 -48 -13 -58 -15 -93 -18
-372 -107 -537 -171 -135 -53 -417 -189 -545 -264 -166 -95 -520 -337 -555
-379 -3 -3 -32 -28 -65 -55 -221 -183 -477 -453 -661 -697 -74 -97 -264 -380
-264 -393 0 -4 -8 -19 -19 -33 -10 -15 -44 -76 -75 -136 -32 -60 -61 -116 -66
-125 -22 -40 -86 -187 -130 -296 -110 -277 -209 -636 -245 -890 -4 -22 -8 -47
-10 -55 -2 -8 -7 -42 -11 -75 -3 -33 -8 -67 -9 -76 -27 -145 -27 -819 0 -961
3 -11 7 -44 9 -72 5 -55 36 -238 41 -246 2 -3 6 -24 9 -46 9 -59 11 -69 41
-184 15 -58 28 -112 30 -120 4 -22 63 -204 92 -285 70 -200 200 -482 310 -674
94 -162 297 -462 358 -527 5 -6 24 -29 40 -50 101 -130 349 -387 484 -504 36
-30 81 -69 100 -86 20 -17 79 -63 131 -103 52 -39 100 -75 106 -80 35 -28 265
-176 359 -230 468 -270 1042 -463 1560 -526 28 -4 61 -8 75 -10 191 -28 757
-28 965 0 109 15 321 48 326 51 4 2 24 6 45 9 46 7 249 57 349 86 373 108 768
291 1115 517 113 73 342 242 410 302 19 17 60 52 90 78 140 121 355 347 491
515 379 470 667 1046 811 1622 25 102 54 239 68 325 7 41 14 84 16 95 2 11 7
44 10 74 3 30 8 64 10 75 11 61 19 252 19 486 0 333 -12 471 -61 745 -2 11 -9
47 -15 80 -38 210 -142 560 -231 770 -16 39 -36 88 -46 110 -30 73 -188 379
-225 438 -20 31 -37 59 -37 62 0 10 -170 259 -239 350 -216 286 -499 572 -785
794 -620 481 -1379 788 -2146 867 -30 3 -66 8 -80 11 -28 6 -625 14 -631 9z
m591 -109 c14 -3 57 -8 95 -12 72 -7 117 -12 170 -20 17 -3 48 -7 70 -10 83
-13 244 -47 355 -76 63 -17 122 -32 130 -34 31 -7 238 -78 335 -115 437 -167
897 -446 1246 -755 92 -82 358 -354 430 -440 346 -413 603 -874 774 -1391 25
-76 53 -166 61 -199 27 -107 62 -259 67 -290 3 -16 10 -57 15 -90 14 -79 22
-133 37 -259 26 -222 26 -723 -1 -901 -2 -16 -8 -62 -13 -101 -10 -78 -33
-131 -94 -214 -104 -143 -236 -231 -397 -266 -58 -13 -211 -11 -272 3 -238 54
-439 259 -516 528 -26 89 -40 164 -47 240 -20 244 -25 713 -11 1100 10 285 11
339 3 405 -3 30 -6 59 -7 63 0 4 -26 5 -57 1 -159 -19 -290 -4 -399 46 -110
50 -180 106 -284 228 l-45 53 -55 -24 c-55 -25 -181 -64 -210 -66 -134 -9
-208 0 -308 39 -176 68 -301 193 -378 377 -15 37 -29 70 -31 72 -1 2 -26 -6
-55 -18 -29 -12 -98 -31 -153 -42 -55 -11 -101 -21 -102 -22 -1 -1 -4 -21 -8
-45 -27 -184 -103 -350 -209 -457 -88 -90 -170 -133 -301 -161 -95 -21 -276
-3 -410 40 l-80 26 -55 -36 c-286 -183 -534 -184 -803 -2 -48 33 -59 37 -72
26 -9 -7 -21 -18 -28 -23 -26 -22 -114 -74 -152 -90 -98 -41 -168 -54 -275
-51 -58 2 -114 6 -125 9 -59 14 -105 18 -106 8 -1 -6 -2 -14 -3 -18 -8 -29
-20 -219 -31 -458 -3 -71 -8 -161 -10 -200 -3 -38 -7 -115 -10 -170 -3 -55 -7
-125 -10 -155 -2 -30 -7 -95 -10 -145 -3 -49 -8 -109 -11 -132 -2 -23 -6 -77
-9 -120 -3 -43 -7 -92 -10 -108 -2 -17 -7 -66 -10 -108 -4 -43 -8 -88 -10
-100 -3 -12 -7 -33 -9 -47 -3 -14 -8 -43 -11 -65 -11 -78 -55 -225 -84 -282
-171 -333 -585 -450 -904 -256 -111 67 -217 192 -267 314 -22 55 -25 58 -91
84 -194 76 -312 199 -408 426 l-19 47 -59 -17 c-50 -14 -68 -26 -131 -90 -40
-40 -75 -71 -78 -68 -16 16 -29 240 -28 497 1 274 5 339 39 578 18 122 17 121
40 232 8 41 17 85 20 97 26 136 155 537 214 668 6 11 17 38 27 60 132 308 332
643 544 910 30 38 58 74 63 80 35 47 148 167 286 305 524 521 1163 884 1887
1070 156 40 384 84 499 95 33 3 71 8 85 10 14 3 65 7 115 11 49 3 91 7 93 8 5
5 545 -2 572 -7z"/>
</g>
</svg>
