<?xml version="1.0" standalone="no"?>
<!DOCTYPE svg PUBLIC "-//W3C//DTD SVG 20010904//EN"
 "http://www.w3.org/TR/2001/REC-SVG-20010904/DTD/svg10.dtd">
<svg version="1.0" xmlns="http://www.w3.org/2000/svg"
 width="480.000000pt" height="480.000000pt" viewBox="0 0 480.000000 480.000000"
 preserveAspectRatio="xMidYMid meet">
<metadata>
Created by potrace 1.11, written by Peter Selinger 2001-2013
</metadata>
<g transform="translate(0.000000,480.000000) scale(0.100000,-0.100000)"
fill="#000000" stroke="none">
<path d="M2890 3458 c-42 -12 -45 -17 -66 -88 -22 -74 -44 -116 -92 -173 -99
-121 -248 -163 -427 -121 l-70 17 -71 -36 c-141 -71 -254 -73 -388 -6 l-67 33
-76 -38 c-69 -36 -85 -40 -173 -44 l-97 -5 -7 -136 c-8 -168 -44 -678 -52
-746 -27 -232 -112 -377 -259 -446 -206 -96 -443 -20 -555 177 -25 45 -40 59
-92 85 -72 36 -147 109 -178 174 -25 51 -21 51 -103 -17 -32 -26 -62 -48 -68
-48 -15 0 -10 -56 16 -172 149 -644 550 -1193 1116 -1529 474 -281 1049 -390
1594 -303 907 145 1647 791 1918 1675 25 79 57 217 57 241 0 6 -30 -21 -66
-60 -47 -52 -84 -81 -132 -104 -63 -31 -73 -33 -172 -33 -102 0 -109 1 -182
38 -136 67 -227 185 -264 343 -22 95 -32 352 -26 669 l5 265 -60 0 c-112 0
-198 37 -291 123 -41 38 -58 48 -75 43 -146 -43 -235 -39 -344 14 -66 33 -162
127 -191 187 -9 18 -18 33 -21 32 -3 0 -22 -5 -41 -11z"/>
</g>
</svg>
