<?xml version="1.0" standalone="no"?>
<!DOCTYPE svg PUBLIC "-//W3C//DTD SVG 20010904//EN"
 "http://www.w3.org/TR/2001/REC-SVG-20010904/DTD/svg10.dtd">
<svg version="1.0" xmlns="http://www.w3.org/2000/svg"
 width="480.000000pt" height="480.000000pt" viewBox="0 0 480.000000 480.000000"
 preserveAspectRatio="xMidYMid meet">
<metadata>
Created by potrace 1.11, written by Peter Selinger 2001-2013
</metadata>
<g transform="translate(0.000000,480.000000) scale(0.100000,-0.100000)"
fill="#000000" stroke="none">
<path d="M2210 4793 c-177 -16 -504 -84 -571 -118 -16 -9 -29 -13 -29 -11 0 4
-94 -31 -155 -59 -16 -7 -55 -25 -86 -39 -31 -14 -100 -50 -153 -80 -531 -301
-935 -806 -1113 -1391 -28 -94 -69 -277 -78 -354 -4 -30 -9 -63 -12 -75 -9
-36 -10 -408 -2 -476 4 -36 11 -96 14 -135 4 -38 9 -73 11 -76 2 -3 10 -41 19
-85 56 -269 181 -568 340 -810 398 -606 1054 -1002 1775 -1071 137 -13 530 -6
558 10 4 3 30 7 57 11 67 8 99 14 170 33 33 8 69 17 79 19 51 10 223 72 326
117 283 125 519 287 738 506 270 270 473 605 590 971 44 139 69 258 98 465 10
77 12 401 3 480 -5 39 -11 93 -15 120 -3 28 -15 93 -26 145 -154 729 -632
1343 -1301 1669 -97 47 -257 111 -278 111 -10 0 -20 4 -23 9 -3 5 -16 11 -28
14 -13 2 -68 16 -123 30 -112 29 -120 31 -260 53 -91 15 -431 26 -525 17z"/>
</g>
</svg>
