<?xml version="1.0" standalone="no"?>
<!DOCTYPE svg PUBLIC "-//W3C//DTD SVG 20010904//EN"
 "http://www.w3.org/TR/2001/REC-SVG-20010904/DTD/svg10.dtd">
<svg version="1.0" xmlns="http://www.w3.org/2000/svg"
 width="480.000000pt" height="480.000000pt" viewBox="0 0 480.000000 480.000000"
 preserveAspectRatio="xMidYMid meet">
<metadata>
Created by potrace 1.11, written by Peter Selinger 2001-2013
</metadata>
<g transform="translate(0.000000,480.000000) scale(0.100000,-0.100000)"
fill="#000000" stroke="none">
<path d="M2880 3457 c-32 -11 -37 -19 -60 -87 -34 -100 -69 -158 -130 -213
-71 -64 -143 -90 -250 -91 -47 -1 -113 6 -147 13 l-63 15 -72 -37 c-137 -69
-242 -71 -377 -7 -35 17 -69 30 -76 30 -8 0 -46 -17 -85 -37 -67 -35 -76 -37
-164 -38 l-94 0 -6 -50 c-3 -27 -6 -84 -6 -125 0 -130 -49 -734 -65 -816 -49
-241 -207 -384 -425 -384 -158 0 -293 81 -374 226 -14 26 -40 49 -81 72 -76
42 -139 102 -177 170 -16 28 -32 52 -35 52 -3 0 -32 -22 -65 -50 -33 -28 -64
-50 -69 -50 -26 0 -27 -40 -3 -145 50 -224 100 -366 194 -560 265 -544 755
-988 1314 -1190 671 -243 1383 -189 2001 152 370 204 707 539 920 915 81 144
132 259 186 419 33 99 92 329 86 335 -1 2 -22 -23 -47 -54 -86 -108 -178 -159
-305 -169 -118 -9 -222 29 -319 118 -68 62 -119 149 -148 255 -21 75 -22 99
-22 511 l-1 433 -50 0 c-110 0 -211 42 -306 126 -27 24 -54 44 -60 44 -6 0
-36 -7 -67 -16 -84 -25 -200 -16 -277 22 -70 34 -163 122 -194 182 -23 45 -28
47 -81 29z"/>
</g>
</svg>
